<svg id="Layer_1" data-name="Layer 1" xmlns="http://www.w3.org/2000/svg" viewBox="0 0 428.4 294.95"><defs><style>.cls-1{fill:#aafffd;}.cls-2{fill:#3fa0ff;}</style></defs><path class="cls-1" d="M258.72,91.23c9.14,0,16.4,3.45,21.33,11.4,2.33,3.76,1.42,8.12,2.4,12.13.31,1.23-.28,3,1.31,3.48,5.07,1.59,3.93,4.86,2.5,8.32-1.69,4.07-2.22,8.57-5.89,11.87-1.4,1.26-1.26,4.35-1.61,6.63C277,156.61,268,165,257.82,164.72c-7.3-.23-12.53-4.34-15.39-10.34-4.77-10-8.46-20.56-12.62-30.87-.75-1.86-.3-3.53,1.5-4.16,3.46-1.2,3.48-4,3.76-6.83C236.43,98.42,244.41,91.25,258.72,91.23Z" transform="translate(-44.27 -91.23)"/><path class="cls-1" d="M289.61,223.77c-7.13-.33-15.38-3.81-23.38-8-3.26-1.7-3.51-5.11-3.79-8.23-.7-7.78-1.16-15.59-1.8-23.39a8.34,8.34,0,0,1,3.28-7.87c3.79-3,7.44-6.14,11.14-9.24,4.46-3.73,9.37-4.27,14.18-.87,6.82,4.82,13.25,10.17,17.74,17.35,4.95,7.91,7.14,16.54,4.66,25.74C309,219.26,302.12,224,289.61,223.77Z" transform="translate(-44.27 -91.23)"/><path class="cls-1" d="M255.83,187.27a167.28,167.28,0,0,1-2,22.69c-.26,1.72-.54,3.45-2.06,4.34-9.27,5.46-19,10.15-30,8.87-12.25-1.41-18.87-11.65-17.26-24.72,2-15.95,12.47-25.64,24.88-33.74,3.9-2.55,8.28-2,12,1.43a48.25,48.25,0,0,0,6.87,5.78C254.46,175.87,257.73,181,255.83,187.27Z" transform="translate(-44.27 -91.23)"/><path class="cls-1" d="M159.18,340.16c-4.68.85-5.33,3.52-3.58,7,2.11,4.24,4.6,5.22,7.92,3.18.82-.5,1.62-1.62,2.56-.66,1.1,1.13.51,2.48-.21,3.66a13.91,13.91,0,0,1-12,6.9c-5.15-.08-8.09-4.84-10.25-9.21-1.09-2.2-1.8-4.6-3.15-6.71-.71-1.11-1.5-2.49-.84-3.77,3-6,4.73-13.22,12.47-15.13,3.83-1,5.24-3.32,4.2-6.53-4.44-13.78-.25-27,2.47-40.24a15.57,15.57,0,0,0-.48-8.78c-3.89-10.36-2-20.49.79-31.38,2.57,4.71,4.55,9,7.32,12.89s5.57,7,10,8.72c3.32,1.33,4.33,3.74,3.94,7.56-1.5,14.61-8.86,27-14.36,40.14-1.74,4.14-3.36,8.32-5.07,12.48-1.08,2.65-.81,4.4,2.07,6.1,6.6,3.93,7.16,7.49,2.8,14a19.89,19.89,0,0,0-2.32,4.91c-.54,1.6-.74,4.22-3.38,3.19-2.22-.87-3-3.09-2.38-5.43A13.1,13.1,0,0,1,159.18,340.16Z" transform="translate(-44.27 -91.23)"/><path class="cls-1" d="M357.82,238.74c2.93,11.38,4.69,21.82.7,32.27-1.82,4.76-.4,9.3.73,13.7,2.86,11.09,4.54,22.09,1.53,33.45-1,3.94,0,6.77,4.79,8.17,8.39,2.49,12.4,13.5,9.06,21.57-1.76,4.25-3.44,8.28-7.18,11.1-4.68,3.53-15.61-.44-16.94-6.13-.18-.79-.41-1.73.41-2.28,1.05-.72,1.88.09,2.65.68,3.43,2.61,5.17-.13,6.92-2.28,2.11-2.59,2.59-5.41.09-8.1-.63-.68-1.53-1.58-2.54-.69-.82.72-.16,1.55.39,2.14a3.46,3.46,0,0,1,.39,4.56c-.69,1.16-1.35,2.43-2.93,2.32-1.43-.1-1.86-1.4-2.09-2.5-.57-2.68-2.13-4.81-3.48-7.1-3.14-5.29-2.49-9.23,2.9-12.21,3.84-2.12,3.78-4.32,2.39-7.67-3.77-9.07-7.17-18.29-11.81-27-4.31-8.07-5.57-17-7.34-25.79a4.91,4.91,0,0,1,3-5.79c8.7-3.42,12.53-11,16.44-18.57C356.4,241.59,356.9,240.56,357.82,238.74Z" transform="translate(-44.27 -91.23)"/><path class="cls-1" d="M226.08,163.14c-7.66,6-14.2,11.56-18.74,19.15a43.83,43.83,0,0,0-6.54,18.65c-.3,3.33-1.49,4.82-4.9,4.7-4-.14-8,0-12,0a9.58,9.58,0,0,1-8.7-4.93c-8.08-13.79-1.66-38.68,13.56-43.43a21.28,21.28,0,0,1,8.84-.84A134.74,134.74,0,0,1,226.08,163.14Z" transform="translate(-44.27 -91.23)"/><path class="cls-1" d="M290.88,163.75c10.83-3.8,21.09-6.73,31.71-6.93,9.49-.18,17.25,7.31,20.65,18.2a37.43,37.43,0,0,1,.41,22c-1.77,6.08-5.23,8.8-11.57,8.75-4.49,0-9.41.95-13.35-.56-4.76-1.84-2.83-7.89-4.24-12C310.21,180.92,301.9,172,290.88,163.75Z" transform="translate(-44.27 -91.23)"/><path class="cls-1" d="M323.36,208.38c7.77,0,13.49,3.92,14.81,11.31a62.59,62.59,0,0,0,8,20.78c2.81,4.79,1.79,8.23-1.75,11.95-8.4,8.84-10.13,8.56-17.45-1.34-8-10.87-12.35-22.53-10.65-36.22C317,209.46,317.7,208.39,323.36,208.38Z" transform="translate(-44.27 -91.23)"/><path class="cls-1" d="M200.54,219.12c1.28,16.25-6.93,26.9-15.6,37.34-2.43,2.93-4.93,2.92-7.5.1-.78-.86-1.78-1.5-2.62-2.3-7.17-6.82-7.26-7.6-2.84-16.55,2.93-5.93,5.59-11.88,6.73-18.59,1.41-8.35,11-13.4,18.88-10.7,2.08.72,2.77,2.39,2.9,4.23C200.68,215.29,200.54,218,200.54,219.12Z" transform="translate(-44.27 -91.23)"/><path class="cls-1" d="M372.7,326.76c-8-4.22-9.32-6-8.15-13.67a65.07,65.07,0,0,0-2.69-30.45c-1.24-3.85-1.9-8.09-.09-11.74,4.28-8.63,1.8-17.22.67-25.87-.27-2.1-1.64-4-1.12-6.45,2.72.6,3.62,2.82,4.32,4.91,4.16,12.29,7.45,24.77,8,37.83C374.28,296.27,372.27,311.15,372.7,326.76Z" transform="translate(-44.27 -91.23)"/><path class="cls-1" d="M144.38,326.17c-.23-17.38-2.18-34.33-.81-51.24.9-11.06,4.09-21.86,7.78-32.39a7,7,0,0,1,4.75-4.77c-1.92,7.63-3.57,15-3.38,22.65,0,1.65-.26,3.61.5,4.9,4.55,7.75,2.69,15.51.15,23.15s-2,15.5-1.15,23.25C153.22,320.86,151.48,323.3,144.38,326.17Z" transform="translate(-44.27 -91.23)"/><path class="cls-1" d="M281.37,302.31c1.33-6.5,3.49-12.72,7.43-18.13,6.06-8.34,9.49-17.4,8.67-27.89-.26-3.32,1-6.51,1.77-9.74.64-2.88,1.64-5.83-.85-8.47-1.65-1.75-1.25-3.45.87-4.4s3.6-.15,4.32,2a55.52,55.52,0,0,1,3,13.05C308.59,271.39,297.8,288.13,281.37,302.31Z" transform="translate(-44.27 -91.23)"/><path class="cls-1" d="M235.8,302.07c-12.14-10.49-22.11-22.37-24.81-38.63-1.48-8.89-1.34-17.89,1.69-26.55.75-2.17,1.39-5.52,5-3.86,3.32,1.53,1.57,3.67.06,5.6a5,5,0,0,0-.77,4.76,52.05,52.05,0,0,1,2.43,17.13c0,8.29,3.27,15.51,8.06,22.09C231.68,288.47,234,295.15,235.8,302.07Z" transform="translate(-44.27 -91.23)"/><path class="cls-1" d="M281.31,249.61c-4.75-.35-8.72-.61-12.69-.94-2.83-.23-5.27-1.34-6.19-4.19s.09-5.24,2.13-7.26a15.47,15.47,0,0,1,2.29-1.91c4.45-2.95,23.44-1.93,27.47,1.51a6.64,6.64,0,0,1,2.13,6.76c-.59,3.09-2.8,4.49-5.53,5C287.5,249.14,284,249.33,281.31,249.61Z" transform="translate(-44.27 -91.23)"/><path class="cls-1" d="M237.23,248.52c-3.31,0-6.68.38-9.92-.1-3.75-.56-7.1-2.22-7-6.95.13-4.44,3-6.31,6.91-7.15,6.05-1.32,12.2-1.08,18.32-1a9.22,9.22,0,0,1,7.49,4.25c3.17,4.41,2,8.31-3,10.22C245.87,249.37,241.49,248.26,237.23,248.52Z" transform="translate(-44.27 -91.23)"/><path class="cls-1" d="M281.39,161.52c-3.24.06-4.57-1.65-3.8-4.72a31.42,31.42,0,0,1,2.31-6c3.33-6.88,7.39-8.39,14.37-5.36a42.63,42.63,0,0,1,12,8c1.77,1.64,2,2.92-.93,3.63C297.4,158.91,289.56,161,281.39,161.52Z" transform="translate(-44.27 -91.23)"/><path class="cls-1" d="M231.72,160.63c-5.63-.46-12.52-2.26-19.42-4-3-.78-3.43-2.31-1.06-4.33,4.32-3.7,9-6.89,14.44-8.62a7.4,7.4,0,0,1,7.82,1.83,19.32,19.32,0,0,1,4.87,8C240.51,159.86,239.83,160.84,231.72,160.63Z" transform="translate(-44.27 -91.23)"/><path class="cls-1" d="M256.61,296.57a2,2,0,0,1,0,.49c-.7,2.86,2,7.24-1.79,8.39a12.46,12.46,0,0,1-12.07-3A35.31,35.31,0,0,1,235.21,292c-1.58-3.2-.38-4.63,2.77-5.18,5.12-.88,10.28-.45,15.41-.4,2.2,0,3.2,1.5,3.21,3.64S256.61,294.41,256.61,296.57Z" transform="translate(-44.27 -91.23)"/><path class="cls-1" d="M239.3,265.76c-4-.32-7.37.3-10.62-.95-2.56-1-4.37-2.3-4.35-5.32a5.7,5.7,0,0,1,4.46-5.9,51.1,51.1,0,0,1,18.35-1.06,7.15,7.15,0,0,1,6.64,7c.27,4.35-3.23,5.09-6.29,5.67A59.75,59.75,0,0,1,239.3,265.76Z" transform="translate(-44.27 -91.23)"/><path class="cls-1" d="M271.49,287.23a17.24,17.24,0,0,1,2.49,0c2.83.4,6.78-1.21,8.1,2.08,1.12,2.77-1.58,5.49-3.18,7.93-3.09,4.7-6.79,8.38-12.89,9.1-3.8.46-5.82-.2-5.65-4.41a59.56,59.56,0,0,0,0-8.45c-.5-4.79,1.36-6.87,6.19-6.35a48.64,48.64,0,0,0,5,0Z" transform="translate(-44.27 -91.23)"/><path class="cls-1" d="M277.52,265.7c-2.49,0-5,0-7.45,0-3.36,0-6.69-.76-7.1-4.66a6.79,6.79,0,0,1,5.37-7.46,41.79,41.79,0,0,1,20.5,1,5.2,5.2,0,0,1,3.67,6.28c-.56,3-2.69,4.56-5.57,4.76-3.12.23-6.28.05-9.42.05Z" transform="translate(-44.27 -91.23)"/><path class="cls-1" d="M169.76,184.6c-1.27,15.09-3.08,29.68-9.29,43.36-.56,1.23-1.07,3.14-3.06,2.71-1.44-.32-1.2-1.81-1.21-2.95-.24-14.84,3.94-28.53,10.8-41.52C167.38,185.48,167.83,184.75,169.76,184.6Z" transform="translate(-44.27 -91.23)"/><path class="cls-1" d="M348,185c5.69,7.2,8.34,15.69,10.5,24.31,1.52,6.08,2.78,12.29,2.3,18.66-.09,1.24.41,2.94-1.31,3.37s-2.19-1.22-2.76-2.34c-4-7.74-5.85-16.16-7.31-24.66C348.36,198,347.11,191.7,348,185Z" transform="translate(-44.27 -91.23)"/><path class="cls-1" d="M345.35,201.71c1.4,10.18,5.24,18.86,8.68,27.67,1.15,2.94,1.82,5.77-.15,8.52-1.26,1.74-2.77,2.87-5,1C341,232.4,338.57,210.83,345.35,201.71Z" transform="translate(-44.27 -91.23)"/><path class="cls-1" d="M171.86,201.61c4.4,5,4.33,10.49,3.92,16a40.81,40.81,0,0,1-5.69,17.81c-1.07,1.83-2,5.46-5.37,3.44a6,6,0,0,1-2.77-7.72c2.66-7.13,5.86-14.07,7.8-21.46C170.42,207.14,171.08,204.61,171.86,201.61Z" transform="translate(-44.27 -91.23)"/><path class="cls-1" d="M242.34,282.56c-3.13-.05-6.29.44-9.34-.8-2.2-.91-3.6-2.25-3.65-4.76a4.47,4.47,0,0,1,3.15-4.59,32.86,32.86,0,0,1,17.57-1.57c3.38.64,6.07,3.08,5.86,7s-3.83,4.13-6.64,4.61A41.29,41.29,0,0,1,242.34,282.56Z" transform="translate(-44.27 -91.23)"/><path class="cls-1" d="M274.13,271.31a26.71,26.71,0,0,1,8.89,1c2.77.9,4.81,2.43,4.56,5.67-.23,3-2.4,4.07-5,4.7-5.81,1.41-11.6.39-17.37-.17a4.89,4.89,0,0,1-4.47-3.52c-.63-2.36.88-4.13,2.46-5.64C266.35,270.3,270.37,271.42,274.13,271.31Z" transform="translate(-44.27 -91.23)"/><path class="cls-1" d="M289.72,226.9c12.51.81,20.52-4.85,24.6-16.37-1.19,7.53-1.85,14.9.28,22.28.54,1.86,1.3,4-.39,5.68-1.47,1.5-2.57,4.32-4.72,3.94-1.89-.33-1.87-3.15-2.16-5.06-.71-4.67-3.86-6.69-8.08-7.63C296.11,229.05,292.75,229.1,289.72,226.9Z" transform="translate(-44.27 -91.23)"/><path class="cls-1" d="M202.23,208.6c4.26,12.6,12.12,18.49,24.63,17.88-3.25,2.35-6.83,2.23-10.12,3-4.07,1-6.28,3.19-7.18,7.25-.4,1.83.21,4.79-2.81,5-2.22.13-5.58-5.18-4.84-7.71,1.77-6,1.8-12.14,1.39-18.29C203.17,213.74,202.73,211.81,202.23,208.6Z" transform="translate(-44.27 -91.23)"/><path class="cls-1" d="M247.41,221.26c1.42.15,2.76.2,4,.47.77.15,1.77.38,1.88,1.37s-.63,1.5-1.38,1.88c-5.52,2.77-11.15,5.17-17.53,4.69-1.51-.11-3.23-.51-3.61-2.13-.45-1.9,1.4-2.48,2.71-3A51.36,51.36,0,0,1,247.41,221.26Z" transform="translate(-44.27 -91.23)"/><path class="cls-1" d="M280.34,230.63a52.92,52.92,0,0,1-14.76-4.73c-.91-.46-2.33-1-1.79-2.51.39-1.07,1.6-1,2.59-1.06a35.49,35.49,0,0,1,15.56,2.21c1.66.65,4.64.78,4,3.45C285.44,230.34,282.84,230.56,280.34,230.63Z" transform="translate(-44.27 -91.23)"/><path class="cls-2" d="M259.49,350.47H183.67c-1.16,0-2.33,0-3.49,0-2.49-.06-4.21-1.17-4.41-3.75-.24-2.94,1.74-4.3,4.28-4.41,5.3-.24,10.62-.17,15.94-.17l138.53,0c2.15,0,4.3-.17,6.41.57,1.75.61,2.88,1.58,2.94,3.52a3.66,3.66,0,0,1-3.12,3.91,22,22,0,0,1-4.95.34Q297.64,350.49,259.49,350.47Z" transform="translate(-44.27 -91.23)"/><path class="cls-2" d="M102.52,346.65c0,9.9,0,19.81,0,29.71,0,6.54-2.73,9.79-7.89,9.81-4.88,0-7.69-3.53-7.7-10.06q-.06-30,0-59.93c0-6,3-9.66,7.7-9.69s7.83,3.59,7.87,9.46c.07,10.23,0,20.47,0,30.7Z" transform="translate(-44.27 -91.23)"/><path class="cls-2" d="M430,346.47c0,10.07.05,20.13,0,30.19,0,6.14-2.93,9.59-7.71,9.48s-7.91-3.51-7.93-9.47q-.1-30.43,0-60.88c0-5.36,3.33-9.21,7.65-9.3,4.81-.11,7.95,3.44,8,9.3C430,326,430,336.24,430,346.47Z" transform="translate(-44.27 -91.23)"/><path class="cls-2" d="M66.69,346.49c0-8.25-.07-16.5,0-24.74.07-5.88,2.39-8.48,7.3-8.6s8.23,3,8.29,8.51q.24,24.49,0,49c0,5.82-3.58,9.52-8.15,9.41s-7.45-3.71-7.5-9.81C66.65,362.33,66.69,354.41,66.69,346.49Z" transform="translate(-44.27 -91.23)"/><path class="cls-2" d="M434.92,346.58c0-8.22-.07-16.45,0-24.68.05-5.51,2.77-8.64,7.31-8.74,4.89-.11,8.23,3,8.28,8.46q.23,24.69,0,49.38c-.05,5.32-3.8,9.12-8,8.94-4.8-.2-7.53-3.43-7.56-9.16C434.88,362.71,434.92,354.65,434.92,346.58Z" transform="translate(-44.27 -91.23)"/><path class="cls-2" d="M472.64,347c0,4.28.08,8.56,0,12.84-.11,5.25-3,8.35-7.65,8.46s-7.84-3-7.91-8.17q-.17-13.83,0-27.66c.06-4.92,3.23-8.2,7.44-8.19a8.29,8.29,0,0,1,8,7.9c.25,4.93.06,9.88.06,14.82Z" transform="translate(-44.27 -91.23)"/><path class="cls-2" d="M59.72,346.29c0,4.78.1,9.55,0,14.33s-2.91,7.55-7.28,7.68c-4.63.14-7.61-2.63-7.81-6.7-.47-10.13-.39-20.3-.08-30.44.13-4.14,3.93-7,7.77-6.87,4.19.13,7.26,3.18,7.39,7.67C59.82,336.74,59.71,341.51,59.72,346.29Z" transform="translate(-44.27 -91.23)"/><path class="cls-2" d="M395.06,350.38c-2.47,0-5,.15-7.42-.05-2.29-.18-4.21-1.18-4.33-3.84a3.79,3.79,0,0,1,4-4.17c5.43-.21,10.89-.18,16.32.09,2.16.11,4.27,1.19,4.13,4s-2.24,3.86-4.73,4-5.28,0-7.93,0Z" transform="translate(-44.27 -91.23)"/><path class="cls-2" d="M122.23,350.32c-2.82,0-5.66.18-8.47-.05a3.8,3.8,0,0,1-3.7-4,3.48,3.48,0,0,1,3.31-3.71,60.61,60.61,0,0,1,17.84.08c2,.36,3.31,1.57,3.2,3.77a3.72,3.72,0,0,1-3.71,3.9c-2.81.18-5.65,0-8.47,0Z" transform="translate(-44.27 -91.23)"/></svg>